<svg width="41" height="41" viewBox="0 0 41 41" fill="none" xmlns="http://www.w3.org/2000/svg">
<g clip-path="url(#clip0_855_6)">
<path fill-rule="evenodd" clip-rule="evenodd" d="M36.2746 36.208C32.0349 39.3343 25.8914 40.9999 20.6024 40.9999C13.1711 40.9999 6.50604 38.258 1.45407 33.693C1.0697 33.3342 1.41307 32.8448 1.8897 33.1241C7.34142 36.2977 14.0936 38.2068 21.0457 38.2068C26.0663 38.1837 31.0328 37.1682 35.6596 35.2189C36.3771 34.914 36.9793 35.6879 36.2746 36.208ZM38.0376 34.1914C37.4995 33.4995 34.4552 33.8646 33.092 34.0248C32.6756 34.076 32.6128 33.7135 32.9869 33.4534C35.4213 31.7493 39.3855 32.24 39.8493 32.8127C40.3131 33.3855 39.7289 37.374 37.4534 39.2754C37.1036 39.5675 36.7704 39.4125 36.9409 39.0242C37.4534 37.7481 38.5988 34.8858 38.0555 34.1914" fill="black"/>
<path fill-rule="evenodd" clip-rule="evenodd" d="M23.6132 17.7633C23.6132 19.9311 23.6683 21.739 22.5728 23.6634C21.6759 25.2265 20.2666 26.1913 18.7227 26.1913C16.5868 26.1913 15.335 24.5641 15.335 22.1618C15.335 17.4212 19.5837 16.5589 23.6145 16.5589L23.6132 17.7633ZM29.2264 31.324C28.8586 31.6533 28.3269 31.6763 27.9118 31.4573C26.0668 29.9236 25.7285 29.2112 24.7189 27.748C21.667 30.8615 19.4991 31.7929 15.5477 31.7929C10.8609 31.7929 7.22217 28.905 7.22217 23.1227C7.22217 18.6076 9.66295 15.5326 13.1544 14.0297C16.1743 12.6997 20.3934 12.4666 23.6158 12.1078V11.4031C23.6158 10.0809 23.7183 8.51519 22.9367 7.37359C22.264 6.34859 20.9636 5.92578 19.8143 5.92578C17.6938 5.92578 15.8078 7.01484 15.3466 9.26728C15.253 9.77978 14.8853 10.2615 14.3767 10.2846L8.96851 9.67984C8.51495 9.57734 8.00757 9.21091 8.13954 8.52672C9.38876 1.97313 15.3043 0 20.5946 0C23.3019 0 26.8394 0.720062 28.974 2.77006C31.6812 5.29797 31.4237 8.67022 31.4237 12.341V21.0125C31.4237 23.6186 32.5038 24.7602 33.5211 26.1695C33.8735 26.682 33.9516 27.2714 33.498 27.6481C32.062 28.8623 30.6406 30.0937 29.234 31.3419L29.2264 31.3266" fill="#221F1F"/>
</g>
<defs>
<clipPath id="clip0_855_6">
<rect width="41" height="41" fill="white"/>
</clipPath>
</defs>
</svg>
