<svg width="63" height="63" viewBox="0 0 63 63" fill="none" xmlns="http://www.w3.org/2000/svg">
<path d="M28.6061 12.7375C28.8826 13.0144 29.0379 13.3897 29.0379 13.781C29.0379 14.1723 28.8826 14.5476 28.6061 14.8244L13.4098 30.0232L53.1564 30.0232C53.548 30.0232 53.9236 30.1787 54.2005 30.4556C54.4774 30.7325 54.633 31.1081 54.633 31.4997C54.633 31.8913 54.4774 32.2669 54.2005 32.5438C53.9236 32.8207 53.548 32.9763 53.1564 32.9763L13.4098 32.9763L28.6061 48.175C28.8669 48.4549 29.0089 48.8252 29.0022 49.2077C28.9954 49.5902 28.8405 49.9552 28.5699 50.2257C28.2994 50.4963 27.9344 50.6512 27.5519 50.658C27.1694 50.6647 26.7991 50.5227 26.5192 50.2619L8.80048 32.5432C8.52397 32.2663 8.36865 31.891 8.36865 31.4997C8.36865 31.1084 8.52397 30.7331 8.80048 30.4563L26.5192 12.7375C26.7961 12.461 27.1714 12.3057 27.5627 12.3057C27.954 12.3057 28.3292 12.461 28.6061 12.7375Z" fill="black"/>
</svg>
