<svg width="51" height="50" viewBox="0 0 51 50" fill="none" xmlns="http://www.w3.org/2000/svg">
<g clip-path="url(#clip0_1313_82)">
<path d="M26.4519 35.8962C26.3502 35.7917 26.2695 35.6676 26.2145 35.531C26.1594 35.3945 26.1311 35.2481 26.1311 35.1002C26.1311 34.9524 26.1594 34.806 26.2145 34.6694C26.2695 34.5329 26.3502 34.4088 26.4519 34.3043L34.4294 26.1002H13.007C12.7169 26.1002 12.4387 25.9817 12.2336 25.7707C12.0284 25.5598 11.9132 25.2736 11.9132 24.9752C11.9132 24.6769 12.0284 24.3907 12.2336 24.1797C12.4387 23.9688 12.7169 23.8502 13.007 23.8502H34.4294L26.4519 15.6462C26.2466 15.4351 26.1313 15.1488 26.1313 14.8502C26.1313 14.5517 26.2466 14.2654 26.4519 14.0543C26.6571 13.8432 26.9355 13.7246 27.2257 13.7246C27.5159 13.7246 27.7943 13.8432 27.9995 14.0543L37.8433 24.1793C37.945 24.2838 38.0256 24.4079 38.0807 24.5444C38.1357 24.681 38.1641 24.8274 38.1641 24.9752C38.1641 25.1231 38.1357 25.2695 38.0807 25.406C38.0256 25.5426 37.945 25.6667 37.8433 25.7712L27.9995 35.8962C27.898 36.0008 27.7773 36.0838 27.6445 36.1404C27.5118 36.197 27.3694 36.2261 27.2257 36.2261C27.082 36.2261 26.9396 36.197 26.8069 36.1404C26.6741 36.0838 26.5535 36.0008 26.4519 35.8962Z" fill="black"/>
</g>
<defs>
<clipPath id="clip0_1313_82">
<rect width="36" height="35" fill="white" transform="translate(22.4976) rotate(40)"/>
</clipPath>
</defs>
</svg>
