<svg width="1440" height="360" viewBox="0 0 1440 360" fill="none" xmlns="http://www.w3.org/2000/svg">
<path d="M-119 293.214C-48.2 322.014 38.5 317.881 73 312.214C111.667 292.214 177.4 227.014 131 126.214C73 0.214409 -41.5 24.2144 -45.5 75.2144C-49.5 126.214 -57.9045 233.715 31.5 252.215C120.905 270.715 331 365.215 372 282.215C413 199.215 354.5 162.214 358.5 126.214C362.5 90.2147 423 66.2141 434 126.214C445 186.215 372 346.215 434 329.215C483.6 315.614 487.833 175.215 489 96.2148C475.333 51.715 487.8 -42.0853 605 22.7147C722.2 87.5147 825.5 49.7147 862.5 22.7147C901.833 -4.78539 997.1 -28.5856 1063.5 96.2146C1146.5 252.215 1271 321.715 1289.5 252.215C1308 182.715 1355 -1.78576 1402 75.2144C1439.6 136.815 1539.33 290.215 1584.5 359.215" stroke="#D7B764"/>
</svg>
