<svg width="1440" height="504" viewBox="0 0 1440 504" fill="none" xmlns="http://www.w3.org/2000/svg">
<path d="M-143 34.8691C-63.4 -13.1309 20.5 0.202395 52.5 12.8691C108.5 30 124.1 65.7691 164.5 121.369C204.9 176.969 290.757 165.122 317.5 137.369C340.5 113.5 347.483 75.2586 323.5 46C290 5.13095 230.5 35.0964 230.5 80.369C230.5 113 243.5 189.369 317.5 211.369C391.5 233.369 531.526 185.048 590 171.869C707 145.5 826 246 851.5 271C889.256 308.015 1035 397.631 1147.5 355C1283.42 303.495 1386.5 448 1454 503.5" stroke="#D7B764"/>
</svg>
