<svg width="1440" height="425" viewBox="0 0 1440 425" fill="none" xmlns="http://www.w3.org/2000/svg">
<path d="M-74 329.857C-10.5 334.777 114 230.202 114 190.851C114 151.5 99.5991 140.742 85 135.085C49.5 121.328 26.5 140.742 20.5 161.654C14.5 182.567 17.4531 209.77 26.5 228C44 263.264 114.551 301.431 139 290.5C175.5 274.182 192.153 246.617 236 190.851C293 118.356 291.5 60.1912 324.5 66.5C357.5 72.8088 333 149.52 282.5 236.86C232 324.2 104.837 395.39 127 418.5C155 447.697 269 345.446 324.5 290.5C366.038 249.376 367 216 399 140.742C412.64 108.662 444.629 51.025 482.5 51.025C559.5 51.025 547.093 128.384 475 178.549C425.5 212.993 448 281.555 583.5 236.86C719 192.165 722.5 178.549 784.5 178.549C890.699 178.549 1058 201.512 1165.5 190.851C1273 180.19 1090 92.4404 1181 92.4404C1272 92.4404 1495 172.399 1735 1" stroke="#D7B764"/>
</svg>
