<svg width="1558" height="424" viewBox="0 0 1558 424" fill="none" xmlns="http://www.w3.org/2000/svg">
<path d="M0 314.149C54.8724 186.36 77.0409 322.233 109.276 349.459C229.5 451 373.789 466.038 314.226 273.234C254.664 80.4293 136.477 178.513 200.261 246.331C264.044 314.149 370.975 338.249 400.521 314.149C430.068 290.048 487.285 177.953 464.305 112.937C441.324 47.922 394 4.5 363.94 1.40225C313.247 -3.82176 291.715 42.3176 314.226 77.6275C332.236 105.875 443.044 142.082 496.196 156.655C619.5 190.46 670.193 161.923 730.225 218.868C805.264 290.049 924.097 325.091 982.544 314.149C1201.1 273.234 1094.16 107.333 1201.1 61.3736C1286.64 24.6062 1474.68 214.571 1558 314.149" stroke="#D7B764"/>
</svg>
